HIERARCHY
ROOT Hips
{
	OFFSET 0.00000 0.00000 0.00000
	CHANNELS 6 Xposition Yposition Zposition Zrotation Yrotation Xrotation 
	JOINT LHipJoint
	{
		OFFSET 0 0 0
		CHANNELS 3 Zrotation Yrotation Xrotation
		JOINT LeftUpLeg
		{
			OFFSET 1.56857 -1.73443 1.15205
			CHANNELS 3 Zrotation Yrotation Xrotation
			JOINT LeftLeg
			{
				OFFSET 2.39362 -6.57643 0.00000
				CHANNELS 3 Zrotation Yrotation Xrotation
				JOINT LeftFoot
				{
					OFFSET 2.50952 -6.89485 0.00000
					CHANNELS 3 Zrotation Yrotation Xrotation
					JOINT LeftToeBase
					{
						OFFSET 0.17171 -0.47178 1.88682
						CHANNELS 3 Zrotation Yrotation Xrotation
						End Site
						{
							OFFSET 0.00000 -0.00000 0.98146
						}
					}
				}
			}
		}
	}
	JOINT RHipJoint
	{
		OFFSET 0 0 0
		CHANNELS 3 Zrotation Yrotation Xrotation
		JOINT RightUpLeg
		{
			OFFSET -1.28153 -1.73443 1.15205
			CHANNELS 3 Zrotation Yrotation Xrotation
			JOINT RightLeg
			{
				OFFSET -2.26861 -6.23296 0.00000
				CHANNELS 3 Zrotation Yrotation Xrotation
				JOINT RightFoot
				{
					OFFSET -2.54143 -6.98254 0.00000
					CHANNELS 3 Zrotation Yrotation Xrotation
					JOINT RightToeBase
					{
						OFFSET -0.23309 -0.64041 1.93119
						CHANNELS 3 Zrotation Yrotation Xrotation
						End Site
						{
							OFFSET -0.00000 -0.00000 1.02013
						}
					}
				}
			}
		}
	}
	JOINT LowerBack
	{
		OFFSET 0 0 0
		CHANNELS 3 Zrotation Yrotation Xrotation
		JOINT Spine
		{
			OFFSET -0.07096 2.10460 -0.27878
			CHANNELS 3 Zrotation Yrotation Xrotation
			JOINT Spine1
			{
				OFFSET -0.00826 2.13662 -0.08279
				CHANNELS 3 Zrotation Yrotation Xrotation
				JOINT Neck
				{
					OFFSET 0 0 0
					CHANNELS 3 Zrotation Yrotation Xrotation
					JOINT Neck1
					{
						OFFSET 0.03239 1.77799 0.24435
						CHANNELS 3 Zrotation Yrotation Xrotation
						JOINT Head
						{
							OFFSET 0.01026 1.74194 -0.49664
							CHANNELS 3 Zrotation Yrotation Xrotation
							End Site
							{
								OFFSET 0.00170 1.83057 -0.19653
							}
						}
					}
				}
				JOINT LeftShoulder
				{
					OFFSET 0 0 0
					CHANNELS 3 Zrotation Yrotation Xrotation
					JOINT LeftArm
					{
						OFFSET 3.19178 1.35907 -0.31412
						CHANNELS 3 Zrotation Yrotation Xrotation
						JOINT LeftForeArm
						{
							OFFSET 4.85247 -0.00000 -0.00000
							CHANNELS 3 Zrotation Yrotation Xrotation
							JOINT LeftHand
							{
								OFFSET 3.55584 -0.00000 0.00000
								CHANNELS 3 Zrotation Yrotation Xrotation
								JOINT LeftFingerBase
								{
									OFFSET 0 0 0
									CHANNELS 3 Zrotation Yrotation Xrotation
									JOINT LeftHandIndex1
									{
										OFFSET 0.69320 -0.00000 0.00000
										CHANNELS 3 Zrotation Yrotation Xrotation
										End Site
										{
											OFFSET 0.55888 -0.00000 0.00000
										}
									}
								}
								JOINT LThumb
								{
									OFFSET 0 0 0
									CHANNELS 3 Zrotation Yrotation Xrotation
									End Site
									{
										OFFSET 0.56741 -0.00000 0.56741
									}
								}
							}
						}
					}
				}
				JOINT RightShoulder
				{
					OFFSET 0 0 0
					CHANNELS 3 Zrotation Yrotation Xrotation
					JOINT RightArm
					{
						OFFSET -3.28999 1.24191 -0.26899
						CHANNELS 3 Zrotation Yrotation Xrotation
						JOINT RightForeArm
						{
							OFFSET -4.64462 -0.00000 0.00000
							CHANNELS 3 Zrotation Yrotation Xrotation
							JOINT RightHand
							{
								OFFSET -3.40703 -0.00000 0.00000
								CHANNELS 3 Zrotation Yrotation Xrotation
								JOINT RightFingerBase
								{
									OFFSET 0 0 0
									CHANNELS 3 Zrotation Yrotation Xrotation
									JOINT RightHandIndex1
									{
										OFFSET -0.61958 -0.00000 0.00000
										CHANNELS 3 Zrotation Yrotation Xrotation
										End Site
										{
											OFFSET -0.49952 -0.00000 0.00000
										}
									}
								}
								JOINT RThumb
								{
									OFFSET 0 0 0
									CHANNELS 3 Zrotation Yrotation Xrotation
									End Site
									{
										OFFSET -0.50715 -0.00000 0.50715
									}
								}
							}
						}
					}
				}
			}
		}
	}
}
MOTION
Frames: 10
Frame Time: .0083333
10.0139 17.0001 -0.0213 401.7660 82.4278 396.4640 0.0000 0.0000 0.0000 -27.3367 6.9132 4.4752 0.5794 4.8741 13.5498 0.7337 3.0574 -17.5707 0.0578 -1.5519 -4.2689 0.0000 0.0000 0.0000 9.4594 2.7473 -1.7224 -2.1944 -9.2597 26.6112 -1.0351 6.2554 -18.1587 -0.3747 3.9316 -10.8842 -4.9254 0.9147 3.6908 0.4980 1.6739 10.0574 3.3611 0.5894 8.3987 2.4345 -3.8042 -17.4735 0.5748 -5.7660 34.2731 -1.1049 -1.7222 14.7328 0.0000 -0.0000 0.0000 -85.0662 -26.8994 111.2894 106.4276 -58.9553 -74.1768 -0.0000 0.0000 -3.3256 50.5790 -54.1838 -44.6096 -7.1250 0.0000 -0.0000 0.2604 -35.3996 -0.3631 0.0000 -0.0000 0.0000 88.0778 25.1826 68.4831 -155.8499 35.3226 -112.2068 0.0000 -0.0000 -11.7220 -16.9842 -21.5094 6.3897 7.1250 -0.0000 -0.0000 11.9874 -51.9821 -2.0855
10.0105 17.0028 -0.0098 408.1930 82.9681 402.8730 0.0000 0.0000 0.0000 -27.5861 6.6380 4.5560 0.5794 4.8743 13.5503 0.7283 2.6502 -17.2927 0.0555 -1.5207 -4.1827 0.0000 0.0000 0.0000 9.0601 2.8137 -1.6660 -2.2497 -9.3679 26.9531 -1.0454 6.2416 -18.2502 -0.5480 4.7425 -13.1755 -5.0627 0.9111 3.6700 0.4488 1.6779 10.0294 3.3861 0.5854 8.3799 2.3184 -3.7789 -17.3712 0.6559 -5.7024 34.1296 -1.0358 -1.7026 14.6518 -0.0000 -0.0000 0.0000 -85.1518 -26.8576 111.1474 106.4112 -58.9575 -74.1628 -0.0000 0.0000 -3.3784 49.8677 -53.4279 -43.6103 -7.1250 0.0000 -0.0000 0.4434 -34.4617 -0.6165 -0.0000 -0.0000 0.0000 87.6338 24.9052 68.3005 -155.7265 35.4522 -112.1354 0.0000 -0.0000 -11.3451 -16.6335 -21.5969 6.2751 7.1250 -0.0000 -0.0000 12.3668 -52.0094 -2.1615
10.0104 17.0052 0.0025 413.6660 83.4870 408.3370 0.0000 0.0000 0.0000 -27.6130 6.3813 4.6956 0.5711 4.8399 13.4524 0.7223 2.2865 -17.0400 0.0454 -1.3758 -3.7836 0.0000 0.0000 0.0000 8.9061 2.9274 -1.6395 -2.3154 -9.4943 27.3540 -1.0434 6.4757 -18.2311 -0.6896 5.3087 -14.7913 -5.0928 0.8918 3.5858 0.4825 1.6640 10.0819 3.4420 0.5733 8.4884 2.1817 -3.7407 -17.5413 0.7025 -5.6250 34.0109 -0.9831 -1.6845 14.6436 0.0000 -0.0000 0.0000 -85.2303 -26.7728 110.7562 106.3252 -58.9686 -74.0891 -0.0000 0.0000 -3.3014 50.4040 -51.9953 -43.6099 -7.1250 0.0000 -0.0000 1.4408 -33.5304 -1.9972 0.0000 -0.0000 0.0000 87.0637 24.6705 68.0960 -155.6480 35.5342 -112.0898 0.0000 -0.0000 -11.3058 -15.7860 -22.0886 6.0683 7.1250 -0.0000 -0.0000 13.4025 -52.3521 -2.4615
10.0100 17.0085 0.0164 420.0420 83.8880 414.7140 0.0000 0.0000 0.0000 -27.7026 6.0777 4.8723 0.5576 4.7833 13.2915 0.7078 2.0063 -16.7421 0.0405 -1.2997 -3.5739 0.0000 0.0000 0.0000 8.7034 3.0944 -1.5728 -2.3638 -9.5859 27.6459 -1.0356 6.9294 -18.1668 -0.6711 5.2388 -14.5910 -5.2377 0.9303 3.5589 0.5412 1.7230 10.1089 3.5892 0.5890 8.5266 2.2521 -3.7406 -17.7734 0.5116 -5.5934 33.9262 -1.0725 -1.6912 14.6458 -0.0000 0.0000 0.0000 -85.3590 -26.5749 110.4779 106.4464 -58.9529 -74.1929 -0.0000 0.0000 -3.3527 46.1365 -52.7445 -39.6303 -7.1250 0.0000 -0.0000 -0.5541 -32.2276 0.7643 -0.0000 0.0000 0.0000 86.3074 24.1020 68.1250 -155.4702 35.7195 -111.9862 0.0000 -0.0000 -10.0998 -15.3544 -22.5390 6.0085 7.1250 -0.0000 -0.0000 14.0223 -52.7217 -2.7072
10.0084 17.0130 0.0297 427.2630 84.2457 421.9230 0.0000 0.0000 0.0000 -27.7532 5.7490 5.0565 0.5447 4.7285 13.1358 0.6833 1.8388 -16.3858 0.0636 -1.6270 -4.4759 0.0000 0.0000 0.0000 8.5512 3.2377 -1.4042 -2.3879 -9.6312 27.7906 -1.0470 7.2577 -18.2756 -0.7531 5.5427 -15.4632 -5.2582 0.9819 3.6834 0.5536 1.7776 9.9878 3.6091 0.6219 8.3123 2.3663 -3.7503 -17.7065 0.3281 -5.5664 33.8963 -1.1591 -1.6892 14.6040 -0.0000 -0.0000 0.0000 -85.4526 -26.2385 110.2252 106.5852 -58.9347 -74.3118 -0.0000 0.0000 -3.6117 46.6749 -49.5038 -38.8779 -7.1250 0.0000 -0.0000 1.2779 -29.6416 -1.7429 -0.0000 -0.0000 0.0000 85.6328 23.2527 67.6544 -155.3144 35.8809 -111.8951 0.0000 -0.0000 -10.9645 -14.2411 -22.6064 5.5722 7.1250 -0.0000 -0.0000 15.1457 -52.5925 -2.8835
10.0072 17.0154 0.0452 434.0870 84.6004 428.7000 0.0000 0.0000 0.0000 -27.5928 5.5278 5.2476 0.5318 4.6729 12.9780 0.6561 1.6439 -15.9819 0.1136 -2.1735 -5.9853 0.0000 0.0000 0.0000 8.5779 3.3719 -1.2471 -2.4217 -9.6942 27.9919 -1.0564 7.5730 -18.3704 -0.6937 5.3243 -14.8358 -5.0105 1.0554 3.7456 0.5036 1.8593 9.8182 3.4136 0.6909 8.0816 2.3878 -3.7529 -17.3607 0.3507 -5.5463 33.8463 -1.1389 -1.6723 14.5032 0.0000 0.0000 0.0000 -85.5027 -25.7836 110.0547 106.4497 -58.9525 -74.1958 -0.0000 0.0000 -3.6720 40.7478 -50.3904 -33.5752 -7.1250 0.0000 -0.0000 -1.5250 -27.9189 2.0621 0.0000 0.0000 0.0000 84.9746 22.2137 67.4784 -155.1013 36.1003 -111.7699 0.0000 -0.0000 -10.7176 -13.4285 -22.9444 5.3176 7.1250 -0.0000 -0.0000 16.0978 -52.7794 -3.1470
10.0107 17.0184 0.0611 442.6610 84.7208 437.2020 0.0000 0.0000 0.0000 -27.6225 5.3293 5.4693 0.5213 4.6274 12.8488 0.6407 1.2956 -15.6436 0.1214 -2.2459 -6.1857 0.0000 0.0000 0.0000 8.3607 3.3509 -1.0553 -2.4438 -9.7350 28.1228 -1.0374 8.0662 -18.2364 -0.4619 4.3595 -12.0904 -5.1403 1.0364 3.6685 0.5019 1.8564 9.9352 3.4901 0.6773 8.2566 2.4016 -3.6717 -17.7113 0.4062 -5.4773 33.7223 -1.1148 -1.6379 14.5293 -0.0000 -0.0000 0.0000 -85.5963 -25.7050 109.6731 106.3572 -58.9645 -74.1165 -0.0000 0.0000 -3.6279 39.0324 -48.6554 -31.3267 -7.1250 0.0000 -0.0000 -1.5016 -25.6525 2.0041 -0.0000 -0.0000 0.0000 84.1821 21.8566 67.3294 -154.6924 36.5167 -111.5278 0.0000 -0.0000 -10.3360 -12.6971 -23.2800 5.0886 7.1250 -0.0000 -0.0000 16.9748 -52.9749 -3.4089
10.0173 17.0221 0.0761 451.5370 84.6889 446.0130 0.0000 0.0000 0.0000 -27.7182 5.0781 5.7271 0.5090 4.5730 12.6946 0.6287 0.9789 -15.3639 0.1037 -2.0768 -5.7180 0.0000 0.0000 0.0000 8.1216 3.3661 -0.7228 -2.4341 -9.7171 28.0653 -1.0324 8.3788 -18.2182 -0.4164 4.1419 -11.4762 -5.2750 1.0143 3.6197 0.4962 1.8395 9.9672 3.5615 0.6588 8.3220 2.2942 -3.6650 -17.7240 0.5537 -5.4851 33.4941 -1.0356 -1.6437 14.4387 -0.0000 0.0000 0.0000 -85.6435 -25.3786 109.3457 106.3836 -58.9611 -74.1391 -0.0000 0.0000 -3.4735 34.1108 -48.1689 -26.7794 -7.1250 0.0000 -0.0000 -3.4227 -23.4014 4.5064 -0.0000 0.0000 0.0000 83.3351 21.2695 67.0468 -154.1373 37.0729 -111.1952 0.0000 -0.0000 -9.7990 -12.1945 -23.6106 4.9469 7.1250 -0.0000 -0.0000 17.6308 -53.2032 -3.6473
10.0189 17.0238 0.0916 459.1700 84.7606 453.6540 0.0000 0.0000 0.0000 -27.5647 4.7695 5.8765 0.5007 4.5365 12.5911 0.6244 0.6794 -15.1899 0.0727 -1.7392 -4.7854 0.0000 0.0000 0.0000 8.2307 3.6127 -0.4988 -2.4368 -9.7221 28.0815 -1.0488 8.3824 -18.3587 -0.4807 4.4462 -12.3354 -5.1666 1.0437 3.6269 0.5371 1.8692 9.8883 3.5430 0.6834 8.2262 2.2188 -3.6809 -17.6677 0.5856 -5.4844 33.4059 -1.0067 -1.6501 14.3899 0.0000 -0.0000 0.0000 -85.7705 -25.0330 109.0319 106.2390 -58.9798 -74.0152 -0.0000 0.0000 -3.5090 31.8339 -45.7873 -23.9888 -7.1250 0.0000 -0.0000 -3.6288 -20.3605 4.6719 0.0000 -0.0000 0.0000 82.5714 20.4568 65.9055 -153.4294 37.7667 -110.7651 0.0000 -0.0000 -11.9030 -10.4393 -22.5802 4.0467 7.1250 -0.0000 -0.0000 18.8143 -51.9168 -3.3010
10.0170 17.0269 0.1059 466.2160 84.5185 460.7710 0.0000 0.0000 0.0000 -27.7052 4.4193 5.9104 0.4995 4.5309 12.5751 0.6270 0.3095 -15.0773 0.0330 -1.1724 -3.2233 0.0000 0.0000 0.0000 8.0219 3.7895 -0.4311 -2.4575 -9.7602 28.2036 -1.0559 8.4558 -18.4257 -0.4565 4.3345 -12.0198 -5.3102 1.0749 3.6029 0.5312 1.9109 9.8166 3.6172 0.6960 8.1550 2.1428 -3.6557 -17.6957 0.5633 -5.4133 33.2724 -0.9897 -1.6374 14.3379 0.0000 -0.0000 0.0000 -86.0308 -24.8725 108.6120 106.0124 -59.0087 -73.8209 -0.0000 0.0000 -4.2341 28.0090 -43.8097 -20.2149 -7.1250 0.0000 -0.0000 -4.8257 -17.2521 6.0573 0.0000 -0.0000 0.0000 81.7277 19.6009 65.4113 -152.8870 38.2867 -110.4310 0.0000 -0.0000 -12.1618 -9.2869 -23.0398 3.6618 7.1250 -0.0000 -0.0000 20.1483 -52.1568 -3.6723
